<svg width="418" height="161" viewBox="0 0 418 161" fill="none" xmlns="http://www.w3.org/2000/svg">
<g filter="url(#filter0_ddddiiii_230_1233)">
<path d="M31.1665 58.7388C31.1665 44.6167 31.1665 37.5556 35.5537 33.1684C39.9409 28.7812 47.002 28.7812 61.1241 28.7812H356.319C370.441 28.7812 377.502 28.7812 381.89 33.1684C386.277 37.5556 386.277 44.6167 386.277 58.7388V86.4803C386.277 105.31 386.277 114.725 380.427 120.574C374.578 126.424 365.163 126.424 346.333 126.424H71.11C52.2804 126.424 42.8657 126.424 37.0161 120.574C31.1665 114.725 31.1665 105.31 31.1665 86.4802V58.7388Z" fill="#FEE592"/>
</g>
<g filter="url(#filter1_dddii_230_1233)">
<rect x="31.1665" y="22" width="355.11" height="97.6425" rx="14.9788" fill="url(#paint0_linear_230_1233)"/>
</g>
<rect x="39.4999" y="28.5" width="339.276" height="85.2516" rx="9.57051" stroke="#594911"/>
<path d="M122.555 74.9625V81H119.967V67.5H122.555V72.9937H124.43L127.805 67.5H130.88L126.68 73.9687L131.255 81H128.161L124.43 74.9625H122.555ZM141.015 78.9H135.503L134.865 81H132.24L136.365 67.5H140.172L144.297 81H141.672L141.015 78.9ZM140.284 76.5L138.24 69.9L136.234 76.5H140.284ZM156.18 70.05H151.923V81H149.373V70.05H145.117V67.5H156.18V70.05ZM165.773 78.9H160.26L159.623 81H156.998L161.123 67.5H164.929L169.054 81H166.429L165.773 78.9ZM165.041 76.5L162.998 69.9L160.991 76.5H165.041ZM183.181 81H180.631V69.9H176.074L175.174 77.4375C174.887 79.85 173.768 81.0563 171.818 81.0563C171.543 81.0563 171.268 81.0375 170.993 81V78.75C171.581 78.7375 172.024 78.575 172.324 78.2625C172.624 77.9375 172.806 77.4812 172.868 76.8937L174.012 67.5H183.181V81ZM192.874 81.2812C191.887 81.2812 190.956 81.0938 190.081 80.7188C189.206 80.3312 188.481 79.7812 187.906 79.0687C187.381 78.4312 186.987 77.7 186.724 76.875C186.462 76.05 186.331 75.175 186.331 74.25C186.331 73.325 186.462 72.45 186.724 71.625C186.987 70.7875 187.381 70.05 187.906 69.4125C188.481 68.6875 189.199 68.1437 190.062 67.7812C190.937 67.4062 191.874 67.2187 192.874 67.2187C193.874 67.2187 194.806 67.4062 195.668 67.7812C196.531 68.1562 197.256 68.7 197.843 69.4125C198.381 70.075 198.768 70.8062 199.006 71.6062C199.256 72.4062 199.393 73.2875 199.418 74.25C199.393 75.225 199.256 76.1125 199.006 76.9125C198.768 77.7 198.381 78.4187 197.843 79.0687C197.243 79.7937 196.506 80.3437 195.631 80.7188C194.768 81.0938 193.849 81.2812 192.874 81.2812ZM192.799 78.8812C193.424 78.8812 193.999 78.7687 194.524 78.5437C195.049 78.3187 195.481 77.9812 195.818 77.5312C196.418 76.7312 196.718 75.6375 196.718 74.25C196.718 72.85 196.418 71.7562 195.818 70.9687C195.493 70.5312 195.074 70.2 194.562 69.975C194.062 69.7375 193.524 69.6187 192.949 69.6187C192.324 69.6187 191.743 69.7312 191.206 69.9562C190.681 70.1812 190.256 70.5187 189.931 70.9687C189.343 71.7187 189.037 72.8125 189.012 74.25C189.037 75.675 189.343 76.7687 189.931 77.5312C190.243 77.9687 190.656 78.3062 191.168 78.5437C191.681 78.7687 192.224 78.8812 192.799 78.8812ZM211.383 70.05H205.121V81H202.571V67.5H211.383V70.05ZM228.753 67.5L223.54 78.5437C223.228 79.1687 222.934 79.6625 222.659 80.025C222.396 80.375 222.059 80.6625 221.646 80.8875C221.434 81 221.159 81.0938 220.821 81.1688C220.496 81.2438 220.221 81.2812 219.996 81.2812C219.509 81.2812 218.984 81.1875 218.421 81L219.246 78.75C219.334 78.775 219.459 78.8125 219.621 78.8625C219.784 78.9 219.909 78.9187 219.996 78.9187C220.259 78.9187 220.471 78.8687 220.634 78.7687C220.834 78.6562 221.021 78.4625 221.196 78.1875C221.371 77.9125 221.509 77.6812 221.609 77.4937L216.921 67.5H219.509L222.828 74.85L226.128 67.5H228.753ZM242.026 72.0375C242.026 72.4875 241.945 72.9375 241.783 73.3875C241.62 73.825 241.401 74.2312 241.126 74.6062C240.726 75.1562 240.201 75.5937 239.551 75.9187C238.914 76.2437 238.233 76.4062 237.508 76.4062H233.889V81H231.339V67.5H237.508C237.97 67.5 238.426 67.5687 238.876 67.7062C239.326 67.8437 239.745 68.0562 240.133 68.3437C240.52 68.6187 240.851 68.9437 241.126 69.3187C241.414 69.7062 241.633 70.1375 241.783 70.6125C241.945 71.075 242.026 71.55 242.026 72.0375ZM239.026 73.2C239.301 72.825 239.439 72.4375 239.439 72.0375C239.439 71.4625 239.276 70.9937 238.951 70.6312C238.764 70.4187 238.533 70.2437 238.258 70.1062C237.995 69.9687 237.739 69.9 237.489 69.9H233.889V74.025H237.489C237.751 74.025 238.026 73.95 238.314 73.8C238.601 73.65 238.839 73.45 239.026 73.2ZM250.601 81.2812C249.614 81.2812 248.682 81.0938 247.807 80.7188C246.932 80.3312 246.207 79.7812 245.632 79.0687C245.107 78.4312 244.714 77.7 244.451 76.875C244.189 76.05 244.057 75.175 244.057 74.25C244.057 73.325 244.189 72.45 244.451 71.625C244.714 70.7875 245.107 70.05 245.632 69.4125C246.207 68.6875 246.926 68.1437 247.789 67.7812C248.664 67.4062 249.601 67.2187 250.601 67.2187C251.601 67.2187 252.532 67.4062 253.395 67.7812C254.257 68.1562 254.982 68.7 255.57 69.4125C256.107 70.075 256.495 70.8062 256.732 71.6062C256.982 72.4062 257.12 73.2875 257.145 74.25C257.12 75.225 256.982 76.1125 256.732 76.9125C256.495 77.7 256.107 78.4187 255.57 79.0687C254.97 79.7937 254.232 80.3437 253.357 80.7188C252.495 81.0938 251.576 81.2812 250.601 81.2812ZM250.526 78.8812C251.151 78.8812 251.726 78.7687 252.251 78.5437C252.776 78.3187 253.207 77.9812 253.545 77.5312C254.145 76.7312 254.445 75.6375 254.445 74.25C254.445 72.85 254.145 71.7562 253.545 70.9687C253.22 70.5312 252.801 70.2 252.289 69.975C251.789 69.7375 251.251 69.6187 250.676 69.6187C250.051 69.6187 249.47 69.7312 248.932 69.9562C248.407 70.1812 247.982 70.5187 247.657 70.9687C247.07 71.7187 246.764 72.8125 246.739 74.25C246.764 75.675 247.07 76.7687 247.657 77.5312C247.97 77.9687 248.382 78.3062 248.895 78.5437C249.407 78.7687 249.951 78.8812 250.526 78.8812ZM262.885 74.9625V81H260.297V67.5H262.885V72.9937H264.76L268.135 67.5H271.21L267.01 73.9687L271.585 81H268.491L264.76 74.9625H262.885ZM279.208 81.2812C278.22 81.2812 277.289 81.0938 276.414 80.7188C275.539 80.3312 274.814 79.7812 274.239 79.0687C273.714 78.4312 273.32 77.7 273.058 76.875C272.795 76.05 272.664 75.175 272.664 74.25C272.664 73.325 272.795 72.45 273.058 71.625C273.32 70.7875 273.714 70.05 274.239 69.4125C274.814 68.6875 275.533 68.1437 276.395 67.7812C277.27 67.4062 278.208 67.2187 279.208 67.2187C280.208 67.2187 281.139 67.4062 282.001 67.7812C282.864 68.1562 283.589 68.7 284.176 69.4125C284.714 70.075 285.101 70.8062 285.339 71.6062C285.589 72.4062 285.726 73.2875 285.751 74.25C285.726 75.225 285.589 76.1125 285.339 76.9125C285.101 77.7 284.714 78.4187 284.176 79.0687C283.576 79.7937 282.839 80.3437 281.964 80.7188C281.101 81.0938 280.183 81.2812 279.208 81.2812ZM279.133 78.8812C279.758 78.8812 280.333 78.7687 280.858 78.5437C281.383 78.3187 281.814 77.9812 282.151 77.5312C282.751 76.7312 283.051 75.6375 283.051 74.25C283.051 72.85 282.751 71.7562 282.151 70.9687C281.826 70.5312 281.408 70.2 280.895 69.975C280.395 69.7375 279.858 69.6187 279.283 69.6187C278.658 69.6187 278.076 69.7312 277.539 69.9562C277.014 70.1812 276.589 70.5187 276.264 70.9687C275.676 71.7187 275.37 72.8125 275.345 74.25C275.37 75.675 275.676 76.7687 276.264 77.5312C276.576 77.9687 276.989 78.3062 277.501 78.5437C278.014 78.7687 278.558 78.8812 279.133 78.8812ZM297.979 74.4187C298.516 75.1312 298.785 75.95 298.785 76.875C298.785 77.7625 298.516 78.5812 297.979 79.3312C297.454 80.0312 296.754 80.5187 295.879 80.7937C295.379 80.9312 294.954 81 294.604 81H288.904V67.5H294.285C294.698 67.5 295.085 67.5625 295.448 67.6875C295.848 67.8 296.21 67.975 296.535 68.2125C296.873 68.45 297.154 68.7312 297.379 69.0562C297.904 69.7062 298.166 70.4937 298.166 71.4187C298.166 71.7937 298.098 72.175 297.96 72.5625C297.823 72.9375 297.629 73.2812 297.379 73.5937L297.304 73.6875C297.541 73.9125 297.766 74.1562 297.979 74.4187ZM291.491 69.8812V72.75H294.416C294.554 72.725 294.704 72.6625 294.866 72.5625C295.029 72.4625 295.16 72.35 295.26 72.225C295.473 71.975 295.579 71.7 295.579 71.4C295.579 70.975 295.454 70.6312 295.204 70.3687C295.104 70.2437 294.96 70.1312 294.773 70.0312C294.585 69.9312 294.416 69.8812 294.266 69.8812H291.491ZM296.216 76.8187C296.216 76.6062 296.173 76.3937 296.085 76.1812C295.998 75.9687 295.879 75.7812 295.729 75.6187C295.554 75.4437 295.373 75.325 295.185 75.2625C295.01 75.1875 294.804 75.15 294.566 75.15H291.491V78.6H294.566C294.954 78.6 295.316 78.45 295.654 78.15C296.029 77.825 296.216 77.3812 296.216 76.8187Z" fill="#594911"/>
<defs>
<filter id="filter0_ddddiiii_230_1233" x="0.110783" y="0.437819" width="417.222" height="159.754" filterUnits="userSpaceOnUse" color-interpolation-filters="sRGB">
<feFlood flood-opacity="0" result="BackgroundImageFix"/>
<feColorMatrix in="SourceAlpha" type="matrix" values="0 0 0 0 0 0 0 0 0 0 0 0 0 0 0 0 0 0 127 0" result="hardAlpha"/>
<feMorphology radius="13.9802" operator="erode" in="SourceAlpha" result="effect1_dropShadow_230_1233"/>
<feOffset dy="13.9802"/>
<feGaussianBlur stdDeviation="1.34809"/>
<feComposite in2="hardAlpha" operator="out"/>
<feColorMatrix type="matrix" values="0 0 0 0 0 0 0 0 0 0 0 0 0 0 0 0 0 0 0.9 0"/>
<feBlend mode="normal" in2="BackgroundImageFix" result="effect1_dropShadow_230_1233"/>
<feColorMatrix in="SourceAlpha" type="matrix" values="0 0 0 0 0 0 0 0 0 0 0 0 0 0 0 0 0 0 127 0" result="hardAlpha"/>
<feMorphology radius="12.9816" operator="erode" in="SourceAlpha" result="effect2_dropShadow_230_1233"/>
<feOffset dy="17.9746"/>
<feGaussianBlur stdDeviation="4.44371"/>
<feComposite in2="hardAlpha" operator="out"/>
<feColorMatrix type="matrix" values="0 0 0 0 0 0 0 0 0 0 0 0 0 0 0 0 0 0 0.25 0"/>
<feBlend mode="normal" in2="effect1_dropShadow_230_1233" result="effect2_dropShadow_230_1233"/>
<feColorMatrix in="SourceAlpha" type="matrix" values="0 0 0 0 0 0 0 0 0 0 0 0 0 0 0 0 0 0 127 0" result="hardAlpha"/>
<feMorphology radius="15.9774" operator="erode" in="SourceAlpha" result="effect3_dropShadow_230_1233"/>
<feOffset dy="25.9633"/>
<feGaussianBlur stdDeviation="7.93876"/>
<feComposite in2="hardAlpha" operator="out"/>
<feColorMatrix type="matrix" values="0 0 0 0 0 0 0 0 0 0 0 0 0 0 0 0 0 0 0.25 0"/>
<feBlend mode="normal" in2="effect2_dropShadow_230_1233" result="effect3_dropShadow_230_1233"/>
<feColorMatrix in="SourceAlpha" type="matrix" values="0 0 0 0 0 0 0 0 0 0 0 0 0 0 0 0 0 0 127 0" result="hardAlpha"/>
<feOffset dy="2.71229"/>
<feGaussianBlur stdDeviation="15.5279"/>
<feComposite in2="hardAlpha" operator="out"/>
<feColorMatrix type="matrix" values="0 0 0 0 0.996078 0 0 0 0 0.901961 0 0 0 0 0.588235 0 0 0 1 0"/>
<feBlend mode="normal" in2="effect3_dropShadow_230_1233" result="effect4_dropShadow_230_1233"/>
<feBlend mode="normal" in="SourceGraphic" in2="effect4_dropShadow_230_1233" result="shape"/>
<feColorMatrix in="SourceAlpha" type="matrix" values="0 0 0 0 0 0 0 0 0 0 0 0 0 0 0 0 0 0 127 0" result="hardAlpha"/>
<feMorphology radius="27.9604" operator="dilate" in="SourceAlpha" result="effect5_innerShadow_230_1233"/>
<feOffset dy="-27.9604"/>
<feGaussianBlur stdDeviation="0.599152"/>
<feComposite in2="hardAlpha" operator="arithmetic" k2="-1" k3="1"/>
<feColorMatrix type="matrix" values="0 0 0 0 0 0 0 0 0 0 0 0 0 0 0 0 0 0 0.5 0"/>
<feBlend mode="normal" in2="shape" result="effect5_innerShadow_230_1233"/>
<feColorMatrix in="SourceAlpha" type="matrix" values="0 0 0 0 0 0 0 0 0 0 0 0 0 0 0 0 0 0 127 0" result="hardAlpha"/>
<feMorphology radius="27.9604" operator="dilate" in="SourceAlpha" result="effect6_innerShadow_230_1233"/>
<feOffset dy="-28.959"/>
<feGaussianBlur stdDeviation="1.84739"/>
<feComposite in2="hardAlpha" operator="arithmetic" k2="-1" k3="1"/>
<feColorMatrix type="matrix" values="0 0 0 0 0 0 0 0 0 0 0 0 0 0 0 0 0 0 0.5 0"/>
<feBlend mode="normal" in2="effect5_innerShadow_230_1233" result="effect6_innerShadow_230_1233"/>
<feColorMatrix in="SourceAlpha" type="matrix" values="0 0 0 0 0 0 0 0 0 0 0 0 0 0 0 0 0 0 127 0" result="hardAlpha"/>
<feMorphology radius="27.9604" operator="dilate" in="SourceAlpha" result="effect7_innerShadow_230_1233"/>
<feOffset dx="-27.9604" dy="-14.9788"/>
<feGaussianBlur stdDeviation="1.84739"/>
<feComposite in2="hardAlpha" operator="arithmetic" k2="-1" k3="1"/>
<feColorMatrix type="matrix" values="0 0 0 0 0.996078 0 0 0 0 0.909804 0 0 0 0 0.596078 0 0 0 1 0"/>
<feBlend mode="normal" in2="effect6_innerShadow_230_1233" result="effect7_innerShadow_230_1233"/>
<feColorMatrix in="SourceAlpha" type="matrix" values="0 0 0 0 0 0 0 0 0 0 0 0 0 0 0 0 0 0 127 0" result="hardAlpha"/>
<feMorphology radius="27.9604" operator="dilate" in="SourceAlpha" result="effect8_innerShadow_230_1233"/>
<feOffset dx="27.9604" dy="-14.9788"/>
<feGaussianBlur stdDeviation="1.84739"/>
<feComposite in2="hardAlpha" operator="arithmetic" k2="-1" k3="1"/>
<feColorMatrix type="matrix" values="0 0 0 0 0.992157 0 0 0 0 0.909804 0 0 0 0 0.607843 0 0 0 1 0"/>
<feBlend mode="normal" in2="effect7_innerShadow_230_1233" result="effect8_innerShadow_230_1233"/>
</filter>
<filter id="filter1_dddii_230_1233" x="21.1806" y="12.0141" width="375.082" height="117.614" filterUnits="userSpaceOnUse" color-interpolation-filters="sRGB">
<feFlood flood-opacity="0" result="BackgroundImageFix"/>
<feColorMatrix in="SourceAlpha" type="matrix" values="0 0 0 0 0 0 0 0 0 0 0 0 0 0 0 0 0 0 127 0" result="hardAlpha"/>
<feOffset dy="0.998587"/>
<feComposite in2="hardAlpha" operator="out"/>
<feColorMatrix type="matrix" values="0 0 0 0 0.996078 0 0 0 0 0.898039 0 0 0 0 0.568627 0 0 0 0.11 0"/>
<feBlend mode="normal" in2="BackgroundImageFix" result="effect1_dropShadow_230_1233"/>
<feColorMatrix in="SourceAlpha" type="matrix" values="0 0 0 0 0 0 0 0 0 0 0 0 0 0 0 0 0 0 127 0" result="hardAlpha"/>
<feOffset dy="2.71229"/>
<feComposite in2="hardAlpha" operator="out"/>
<feColorMatrix type="matrix" values="0 0 0 0 0.996078 0 0 0 0 0.909804 0 0 0 0 0.588235 0 0 0 0.11 0"/>
<feBlend mode="normal" in2="effect1_dropShadow_230_1233" result="effect2_dropShadow_230_1233"/>
<feColorMatrix in="SourceAlpha" type="matrix" values="0 0 0 0 0 0 0 0 0 0 0 0 0 0 0 0 0 0 127 0" result="hardAlpha"/>
<feOffset dy="4.06844"/>
<feComposite in2="hardAlpha" operator="out"/>
<feColorMatrix type="matrix" values="0 0 0 0 0.988235 0 0 0 0 0.905882 0 0 0 0 0.603922 0 0 0 0.11 0"/>
<feBlend mode="normal" in2="effect2_dropShadow_230_1233" result="effect3_dropShadow_230_1233"/>
<feBlend mode="normal" in="SourceGraphic" in2="effect3_dropShadow_230_1233" result="shape"/>
<feColorMatrix in="SourceAlpha" type="matrix" values="0 0 0 0 0 0 0 0 0 0 0 0 0 0 0 0 0 0 127 0" result="hardAlpha"/>
<feOffset dx="9.98587" dy="9.98587"/>
<feGaussianBlur stdDeviation="19.9717"/>
<feComposite in2="hardAlpha" operator="arithmetic" k2="-1" k3="1"/>
<feColorMatrix type="matrix" values="0 0 0 0 0.92412 0 0 0 0 0.9426 0 0 0 0 0.9174 0 0 0 0.3 0"/>
<feBlend mode="normal" in2="shape" result="effect4_innerShadow_230_1233"/>
<feColorMatrix in="SourceAlpha" type="matrix" values="0 0 0 0 0 0 0 0 0 0 0 0 0 0 0 0 0 0 127 0" result="hardAlpha"/>
<feOffset dx="-9.98587" dy="-9.98587"/>
<feGaussianBlur stdDeviation="19.9717"/>
<feComposite in2="hardAlpha" operator="arithmetic" k2="-1" k3="1"/>
<feColorMatrix type="matrix" values="0 0 0 0 0.92412 0 0 0 0 0.9426 0 0 0 0 0.9174 0 0 0 0.3 0"/>
<feBlend mode="normal" in2="effect4_innerShadow_230_1233" result="effect5_innerShadow_230_1233"/>
</filter>
<linearGradient id="paint0_linear_230_1233" x1="31.1665" y1="114.948" x2="461.026" y2="4.38716" gradientUnits="userSpaceOnUse">
<stop stop-color="#FAD167"/>
<stop offset="0.5" stop-color="#FFE68F"/>
<stop offset="1" stop-color="#FFE08F"/>
</linearGradient>
</defs>
</svg>
