<svg width="271" height="80" viewBox="0 0 271 80" fill="none" xmlns="http://www.w3.org/2000/svg">
<rect x="0.126953" width="270.873" height="74.4802" rx="11.4256" fill="#EDBFE3"/>
<rect x="6.48344" y="4.95854" width="258.794" height="65.0287" rx="7.30024" stroke="#A36C96" stroke-width="0.762785"/>
<path d="M72.286 45.5117H70.3409V37.0448H66.8655L66.179 42.7943C65.9597 44.6345 65.1063 45.5546 63.6189 45.5546C63.4091 45.5546 63.1993 45.5403 62.9896 45.5117V43.7955C63.4377 43.7859 63.7762 43.662 64.005 43.4236C64.2339 43.1757 64.3721 42.8277 64.4198 42.3795L65.2922 35.2141H72.286V45.5117ZM83.6849 35.2141V45.5117H81.6969V38.7897L76.9771 45.5117H75.2609V35.2141H77.2346V41.9362L81.9686 35.2141H83.6849ZM94.1836 35.2141V45.5117H92.2242V41.2926C91.9096 41.5405 91.5377 41.7359 91.1086 41.879C90.6891 42.0124 90.2648 42.0792 89.8357 42.0792C89.2446 42.0792 88.6725 41.9457 88.1195 41.6787C87.576 41.4117 87.1422 41.0494 86.818 40.5918C86.3317 39.8957 86.0886 39.0137 86.0886 37.9458V35.2141H88.0623V37.5025C88.0623 38.3606 88.2291 39.0137 88.5628 39.4619C88.9347 39.9482 89.4591 40.1913 90.1361 40.1913C90.4507 40.1913 90.7511 40.1341 91.0371 40.0197C91.3232 39.8957 91.5472 39.7241 91.7093 39.5048C91.9286 39.2187 92.086 38.8278 92.1813 38.332C92.2099 38.1032 92.2242 37.8743 92.2242 37.6455V35.2141H94.1836ZM105.658 35.2141V45.5117H103.712V42.0792H99.1072V45.5117H97.1621V35.2141H99.1072V40.1341H103.712V35.2141H105.658ZM116.095 40.0912C116.304 40.3772 116.471 40.6919 116.595 41.0351C116.719 41.3688 116.781 41.7073 116.781 42.0506C116.781 42.4224 116.719 42.7895 116.595 43.1519C116.481 43.5046 116.314 43.8288 116.095 44.1244C115.885 44.4104 115.632 44.6631 115.337 44.8824C115.041 45.0922 114.722 45.2495 114.378 45.3544C114.035 45.4593 113.687 45.5117 113.334 45.5117H108.629V35.2141H110.574V38.7182H113.334C113.887 38.7182 114.407 38.8421 114.893 39.09C115.389 39.3379 115.79 39.6716 116.095 40.0912ZM114.807 42.0506C114.807 41.7455 114.703 41.4499 114.493 41.1638C114.35 40.9731 114.169 40.8206 113.949 40.7062C113.73 40.5918 113.52 40.5345 113.32 40.5345H110.574V43.681H113.32C113.511 43.681 113.706 43.6286 113.906 43.5237C114.116 43.4188 114.293 43.2853 114.436 43.1232C114.683 42.8467 114.807 42.4892 114.807 42.0506ZM120.013 35.2141V45.5117H118.068V35.2141H120.013ZM129.552 32.0819C129.552 32.4919 129.447 32.8733 129.237 33.2261C129.037 33.5694 128.761 33.8459 128.408 34.0556C128.065 34.2559 127.688 34.356 127.278 34.356C126.868 34.356 126.487 34.2559 126.134 34.0556C125.791 33.8459 125.514 33.5694 125.304 33.2261C125.104 32.8733 125.004 32.4919 125.004 32.0819H126.506C126.506 32.2917 126.582 32.4729 126.735 32.6254C126.887 32.778 127.068 32.8542 127.278 32.8542C127.497 32.8542 127.679 32.778 127.822 32.6254C127.974 32.4729 128.05 32.2917 128.05 32.0819H129.552ZM131.268 35.2141V45.5117H129.28V38.7897L124.561 45.5117H122.844V35.2141H124.818V41.9362L129.552 35.2141H131.268ZM139.76 40.9064V45.5117H137.787V35.2141H139.76V39.4047H141.191L143.765 35.2141H146.111L142.907 40.1484L146.397 45.5117H144.037L141.191 40.9064H139.76ZM153.842 43.9099H149.637L149.151 45.5117H147.148L150.295 35.2141H153.198L156.345 45.5117H154.342L153.842 43.9099ZM153.284 42.0792L151.725 37.0448L150.195 42.0792H153.284ZM165.719 40.0912C165.929 40.3772 166.096 40.6919 166.219 41.0351C166.343 41.3688 166.405 41.7073 166.405 42.0506C166.405 42.4224 166.343 42.7895 166.219 43.1519C166.105 43.5046 165.938 43.8288 165.719 44.1244C165.509 44.4104 165.256 44.6631 164.961 44.8824C164.665 45.0922 164.346 45.2495 164.003 45.3544C163.659 45.4593 163.311 45.5117 162.959 45.5117H158.253V35.2141H165.204V37.1592H160.198V38.7182H162.959C163.512 38.7182 164.031 38.8421 164.518 39.09C165.013 39.3379 165.414 39.6716 165.719 40.0912ZM164.432 42.0506C164.432 41.7455 164.327 41.4499 164.117 41.1638C163.974 40.9731 163.793 40.8206 163.574 40.7062C163.354 40.5918 163.144 40.5345 162.944 40.5345H160.198V43.681H162.944C163.135 43.681 163.33 43.6286 163.531 43.5237C163.74 43.4188 163.917 43.2853 164.06 43.1232C164.308 42.8467 164.432 42.4892 164.432 42.0506ZM176.951 35.2141V45.5117H174.963V38.7897L170.243 45.5117H168.527V35.2141H170.5V41.9362L175.234 35.2141H176.951ZM188.422 35.2141V45.5117H186.477V42.0792H181.871V45.5117H179.926V35.2141H181.871V40.1341H186.477V35.2141H188.422ZM193.338 37.1592V39.3904H197.257V41.3355H193.338V43.5666H198.115V45.5117H191.393V35.2141H198.115V37.1592H193.338ZM208.246 37.1592H204.999V45.5117H203.054V37.1592H199.807V35.2141H208.246V37.1592Z" fill="#693B5F"/>
</svg>
