<svg width="32" height="27" viewBox="0 0 32 27" fill="none" xmlns="http://www.w3.org/2000/svg">
<path d="M0.719212 26.3333H13.8155V13.237H7.07477C7.01057 12.8519 6.97847 12.3062 6.97847 11.6C6.97847 9.67409 7.49205 8.16544 8.51921 7.07408C9.54637 6.04692 11.055 5.59754 13.0451 5.72593L13.8155 0.237045C13.1735 0.10865 12.2427 0.0444524 11.0229 0.0444524C7.62045 0.0444524 5.05255 1.20001 3.31921 3.51112C1.58588 5.82223 0.719212 9.06421 0.719212 13.237V26.3333ZM18.1488 26.3333H31.2451V13.237H24.5044C24.4402 12.8519 24.4081 12.3062 24.4081 11.6C24.4081 9.67409 24.9217 8.16544 25.9488 7.07408C26.976 6.04692 28.4847 5.59754 30.4748 5.72593L31.2451 0.237045C30.6032 0.10865 29.6723 0.0444524 28.4526 0.0444524C25.0501 0.0444524 22.4822 1.20001 20.7488 3.51112C19.0155 5.82223 18.1488 9.06421 18.1488 13.237V26.3333Z" fill="#EFC6E6"/>
</svg>
